# xmcd
#
# Track frame offsets:
#	150
#	13545
#	37497
#	52422
#	65797
#	76332
#	97305
#	110795
#	130457
#	144622
#	161760
#
# Disc length: 2316 seconds
#
# Revision: 1
# Processed by: cddbd v1.4PL0 Copyright (c) Steve Scherf et al.
# Submitted via: audiograbber 1.80
#
DISCID=b3090a0b
DTITLE=Holland K. Smith - Jungle Jane
DYEAR=1900
DGENRE=
TTITLE0=2 Dollar Woman
TTITLE1=Ain't That a Bitch
TTITLE2=Jungle Jane
TTITLE3=Telephone Boogie
TTITLE4=Starvation
TTITLE5=Blood On My Hands
TTITLE6=Lay It On Me
TTITLE7=It Ain't That I Don't Love You
TTITLE8=Thirty Days of Tourture
TTITLE9=Two Timin' Woman
TTITLE10=Bluebird
EXTD=TopCat Records \nhttp://texasblues.com/topcat
EXTT0=
EXTT1=
EXTT2=
EXTT3=
EXTT4=
EXTT5=
EXTT6=
EXTT7=
EXTT8=
EXTT9=
EXTT10=
PLAYORDER=
